<svg width="94" height="94" viewBox="0 0 94 94" fill="none" xmlns="http://www.w3.org/2000/svg">
<path d="M65.0782 63.692C65.8598 64.0269 66.7159 63.8408 67.3487 63.2825C67.907 62.7987 70.5495 60.3793 71.5545 59.7838C72.82 59.0394 73.7877 46.3473 73.7877 46.3845C73.8622 45.6401 73.6016 44.8957 73.0806 44.3746C67.9814 39.201 67.7208 38.531 61.6539 37.7866C59.9789 37.5633 58.8625 37.6377 58.6392 38.0099C57.7086 39.4987 61.9144 42.2158 65.227 42.2158C66.4925 42.2158 70.4006 46.3473 70.0284 47.2778C69.7679 47.9105 69.8795 51.9676 69.8423 56.434L68.1674 57.2901C67.2369 57.7739 66.0831 58.63 65.5992 59.2627C64.7432 60.3421 64.6688 60.3421 63.2172 59.486C61.84 58.6672 59.4579 58.7044 59.4579 59.5605C59.4579 60.3049 62.3983 62.6498 64.3338 63.4314L65.0782 63.692Z" fill="#FFB8B8"/>
<path d="M82.3857 32.0543C82.423 30.9004 81.9018 29.7838 81.0085 29.0766C79.3336 27.7739 77.5099 27.625 76.6166 28.6672C73.7878 32.0915 62.3985 30.8632 50.9718 25.8757C43.1183 22.4514 34.0366 20.9254 26.2203 21.707C9.24785 23.3819 10.9972 23.7913 12.6349 65.3664L14.4587 66.2969C16.2452 67.2274 16.394 67.2274 21.456 66.1108C29.5328 64.3243 42.7089 64.4731 50.3763 66.3714C57.262 68.0835 58.6765 67.7857 55.8477 65.1059C50.6369 60.1928 29.8678 57.3641 21.456 60.4533C19.7439 61.0861 18.1435 61.57 17.883 61.57C16.9897 61.57 18.6645 50.3666 17.8085 27.1784C17.8457 27.1784 35.4137 22.2281 48.478 28.8905C55.5498 32.5009 64.185 34.8458 70.6613 34.883H76.9515C76.9515 65.1431 77.2122 68.3068 76.1328 68.3068C75.6489 68.3068 72.7085 67.9719 69.582 67.5624C63.5151 66.7808 62.6589 66.9297 63.8872 68.679C65.0782 70.354 72.5596 72.1777 77.2494 72.4011C81.567 72.6244 81.0458 71.9916 81.2319 69.349C81.418 66.1108 81.2319 68.679 82.3857 32.0543Z" fill="#FFB8B8"/>
<path d="M25.5875 34.9946C26.7414 34.6969 28.7141 33.022 29.0491 32.0542C29.198 31.5704 30.5752 31.6076 34.8183 32.0914C45.3144 33.3197 40.4757 28.9649 38.4658 28.4066C36.1209 27.7367 32.4734 27.9972 28.3047 28.63C27.5231 28.7416 26.5926 29.3371 26.2576 29.9699C25.9226 30.6026 24.2104 31.6448 23.0194 32.8731C19.7812 36.1112 19.4461 52.3021 22.5726 52.7859C25.1409 53.1581 25.997 53.4931 27.2997 54.7214C28.9002 56.173 29.0862 56.0241 39.694 56.0241C41.1456 56.0241 41.9272 52.451 32.8082 52.0788C29.049 51.9299 28.2302 51.7066 26.8902 50.5899C26.0342 49.8828 25.1037 49.2872 24.8431 49.2872C23.6893 49.2872 24.4337 35.2552 25.5875 34.9946Z" fill="#FFB8B8"/>
<path d="M47.7707 55.0567C48.1801 54.5356 48.4779 52.5257 48.4779 52.3396C48.4779 52.1535 49.5946 52.2279 50.8228 51.8929C55.3637 50.6647 55.2521 45.1561 50.6367 42.5506C49.3713 41.8435 44.7559 41.5829 45.3886 38.7542C45.8353 36.6698 47.3985 37.377 49.0734 38.1959C50.2272 38.717 51.2322 39.3125 52.2371 39.8336C54.0237 40.7641 53.9865 38.382 52.7955 37.377C52.051 36.7443 50.9717 36.1115 49.8923 35.6277C49.669 35.516 50.1155 34.4366 49.7433 33.655C48.9617 32.0545 46.7286 31.3473 46.7286 32.7245C46.7286 32.9106 46.3935 34.3994 46.3935 34.3994C46.3563 34.3994 42.411 32.5756 40.9222 36.9676C40.1778 39.1636 41.1083 42.3645 43.8998 43.2206C46.1331 43.9278 50.1901 44.635 49.8923 46.9426C49.4829 50.1436 44.0486 47.9476 44.0114 47.9476C40.1405 46.9799 37.498 48.2454 42.0761 50.2925C42.8577 50.6647 44.607 51.1113 44.9792 51.4463C45.3514 51.7813 44.9419 53.9028 44.9419 54.275C45.0164 55.9127 46.8774 56.2849 47.7707 55.0567Z" fill="#FFB8B8"/>
</svg>
