<svg width="72" height="63" viewBox="0 0 72 63" fill="none" xmlns="http://www.w3.org/2000/svg">
<path d="M68.9163 25.0152C57.6111 14.1867 48.2887 6.22935 42.1723 2.61979C37.026 -0.415496 32.9341 -0.866708 28.0409 2.82487C22.8525 6.76259 15.7236 13.8586 7.16048 20.9545C-3.59616 29.8965 -0.896499 36.9924 6.4855 37.6898L9.86014 38.018C9.9867 40.5611 10.535 55.3684 10.8725 57.5424C10.999 58.4448 10.8726 59.4701 10.5351 59.7983C8.04633 62.2183 16.272 63.0385 32.0482 61.9723C62.0827 59.9215 64.4868 59.5523 62.3777 57.2551C61.6184 56.4349 62.2932 36.2131 62.2932 36.2131L64.1914 35.598C71.1517 33.424 73.0924 28.9941 68.9163 25.0152ZM30.9093 57.3783C30.3187 52.8662 29.5594 46.7137 30.7829 43.1862C32.6391 39.4946 35.718 38.3462 38.6288 40.192C41.2439 41.8737 42.2565 44.786 42.2986 50.8976L42.3411 56.4349C42.3411 56.3937 33.3138 57.091 30.9093 57.3783ZM56.6831 55.9836L46.981 56.2299C46.981 56.2299 46.8965 53.6458 46.6435 50.077C46.053 40.7662 43.3112 37.4438 36.1822 37.4847C27.3661 37.5256 24.8349 42.1197 26.6065 54.9583L26.9865 57.7065H17.9591L16.314 38.7972C15.9344 34.4905 17.1155 33.0139 28.5472 23.1285C35.8867 16.8119 34.3685 17.0579 39.2193 21.3236C42.6783 24.3591 56.6409 36.09 56.6409 36.09V55.9836H56.6831ZM62.9262 32.2346C60.7325 34.3673 58.9188 33.424 50.187 25.4256C33.9043 10.5771 36.2243 10.6592 21.4182 24.5232C16.525 29.0759 13.6566 31.7423 11.8006 33.1367C7.91977 36.0081 5.26225 31.6191 7.37139 28.5017C8.93215 26.164 12.7285 22.4314 20.1527 15.0481C33.6934 1.55336 33.9043 1.38925 37.0681 3.72726C37.9116 4.34252 41.0755 7.13171 44.0281 9.87989C44.0705 9.9209 61.7872 25.7948 62.1248 26.0817C64.6977 28.2148 64.9507 30.2656 62.9262 32.2346Z" fill="#FFB8B8"/>
<path d="M31.3735 23.8258C27.9142 25.3025 27.0707 30.4297 29.897 33.0138C32.7233 35.5979 39.6411 34.8596 41.5814 31.7832C45.2512 25.9589 38.5867 20.7907 31.3735 23.8258ZM37.6587 25.9589C39.9365 27.5174 38.2067 31.9882 35.2962 31.9882C32.7654 31.9882 32.5124 27.5996 34.9166 25.7948C36.0555 24.9333 36.1822 24.9742 37.6587 25.9589Z" fill="#FFB8B8"/>
</svg>
