<svg width="154" height="95" viewBox="0 0 154 95" fill="none" xmlns="http://www.w3.org/2000/svg">
<path d="M23.4868 4.99935C20.3198 7.58219 22.5674 10.0658 28.1863 10.0658C34.2139 10.0658 41.876 23.576 41.876 33.9074C41.876 39.0731 41.1608 39.3711 30.6381 39.3711C0.500335 39.3711 -10.2266 64.4046 11.3296 84.471C41.9782 113.081 84.682 75.6298 69.562 33.4107C61.7977 12.0526 35.0311 -4.43795 23.4868 4.99935Z" fill="#FFB8B8"/>
<path d="M147.308 28.3443C138.828 10.9599 110.938 -4.23946 99.5979 2.21764C96.4309 4.00575 97.6568 5.69484 105.421 10.4632C120.337 19.7018 124.934 34.9009 112.777 34.9009C78.6549 34.9009 70.2774 81.789 102.663 91.5243C141.485 103.147 166.617 67.5836 147.308 28.3443Z" fill="#FFB8B8"/>
</svg>
