<svg width="116" height="64" viewBox="0 0 116 64" fill="none" xmlns="http://www.w3.org/2000/svg">
<path fill-rule="evenodd" clip-rule="evenodd" d="M45.8199 4.00732C45.9041 8.16983 50.911 14.8625 54.319 13.5974C55.7916 13.0261 55.7914 12.414 54.1926 7.96582C50.3639 -2.6037 45.7358 0.660983 45.8199 4.00732ZM73.5888 13.4342C72.4108 16.6581 76.492 17.2294 79.311 14.2504C82.172 11.1897 85.2434 6.61911 86.8843 3.51763C88.6935 0.538576 85.1592 -0.971355 82.214 1.47718C78.7219 4.33381 74.3882 11.1897 73.5888 13.4342ZM15.6108 10.9448C13.0022 11.9651 21.7536 22.4938 25.2878 22.5754C29.4111 22.657 29.7476 21.7592 26.8865 18.0456C22.3846 12.1691 18.598 9.76138 15.6108 10.9448ZM55.1604 26.0849C53.6037 27.5949 51.7523 29.6762 51.0371 30.6556C44.8942 39.5519 44.8101 39.6336 41.9911 37.5523C35.4696 32.8185 24.7407 29.5945 26.8444 37.8379C28.1487 42.8166 32.0196 51.917 33.0294 54.9369C35.638 62.8946 37.0265 64.2005 41.6546 63.1395C53.1408 60.4461 69.5498 60.3645 81.2885 62.9354C84.1916 63.5884 84.3599 63.2619 84.6544 57.5895C85.2435 46.1222 92.0593 34.9405 92.0593 31.3493C92.0593 27.3092 84.1916 30.3291 73.5048 38.4501L72.4108 39.2663L70.854 38.246C67.6564 36.1648 66.0575 37.7971 67.8667 41.2659C69.3393 44.0817 70.5595 45.0203 73.7992 43.5104C75.6505 42.6534 78.217 41.021 81.8354 38.5317C83.2659 37.5523 84.4441 36.8585 84.4441 36.981C84.4441 37.5523 81.8775 48.2442 81.8775 48.285L75.4822 47.7545C70.3912 47.5505 69.8022 50.1622 75.0614 50.9376C75.6084 51.0192 80.9939 51.6722 80.9939 51.6722C80.9939 51.6722 80.7836 53.9575 80.1945 55.2633C79.5634 56.5692 78.5115 56.8957 76.7865 56.3244C63.2807 51.9987 41.2759 57.263 41.2339 57.263C40.4345 57.3854 33.1136 38.6541 33.7026 38.0828C33.7868 38.0012 34.6702 38.5317 35.68 39.2663C47.0821 47.3056 48.2603 47.0608 55.7916 35.3486L59.3257 29.8394L60.7141 31.8391C64.7532 37.6747 70.4753 35.1038 67.2777 30.8188C66.1838 29.3905 64.3747 27.2684 61.4716 23.9629C60.1673 22.453 58.2319 23.1059 55.1604 26.0849ZM109.899 25.4728C108.384 26.3298 100.474 33.6754 99.5487 35.0629C97.5712 38.1236 101.694 38.8174 105.439 36.0423C109.815 32.8184 116 27.2684 116 26.5339C116.042 25.0648 111.961 24.3302 109.899 25.4728ZM5.68123 45.0203C11.824 46.4894 15.3582 46.8567 16.7466 46.1222C19.0186 44.9387 17.9668 44.0817 12.5813 42.7758C12.0765 42.6534 7.11166 41.3067 3.70366 41.3067C1.26336 41.3067 -4.16412 42.6126 5.68123 45.0203Z" fill="#FFB8B8"/>
</svg>
