<svg width="1439" height="391" viewBox="0 0 1439 391" fill="none" xmlns="http://www.w3.org/2000/svg">
<rect x="-1" y="58" width="1440" height="333" fill="#FFF5F4"/>
<path fill-rule="evenodd" clip-rule="evenodd" d="M1439 3.67862L1415 2.25526C1391 0.831897 1343 -2.01483 1295 2.25526C1247 6.52535 1199 17.9122 1151 19.3356C1103 20.759 1055 12.2188 1007 17.9122C959 23.6057 911 43.5328 863 47.8028C815 52.0729 767 40.686 719 34.9926C671 29.2991 623 29.2991 575 30.7225C527 32.1459 479 34.9926 431 27.8758C383 20.759 335 3.67862 287 7.94871C239 12.2188 191 37.8393 143 43.5328C94.9999 49.2262 46.9999 34.9926 22.9999 27.8758L-1.00006 20.759V72H22.9999C46.9999 72 94.9999 72 143 72C191 72 239 72 287 72C335 72 383 72 431 72C479 72 527 72 575 72C623 72 671 72 719 72C767 72 815 72 863 72C911 72 959 72 1007 72C1055 72 1103 72 1151 72C1199 72 1247 72 1295 72C1343 72 1391 72 1415 72H1439V3.67862Z" fill="#FFF5F4"/>
</svg>
