<svg width="17" height="21" viewBox="0 0 17 21" fill="none" xmlns="http://www.w3.org/2000/svg">
<path d="M9.54922 19.8038C11.8602 17.2569 17 11.0841 17 7.61683C17 3.41012 13.1945 0 8.5 0C3.80729 0 0 3.41012 0 7.61683C0 11.0841 5.17969 17.2569 7.45078 19.8038C7.99531 20.4107 9.00469 20.4107 9.54922 19.8038ZM8.5 10.1558C6.93724 10.1558 5.66667 9.01722 5.66667 7.61683C5.66667 6.21645 6.93724 5.07789 8.5 5.07789C10.0628 5.07789 11.3333 6.21645 11.3333 7.61683C11.3333 9.01722 10.0628 10.1558 8.5 10.1558Z" fill="#1A1A1A"/>
</svg>
