<svg width="1440" height="58" viewBox="0 0 1440 58" fill="none" xmlns="http://www.w3.org/2000/svg">
<path fill-rule="evenodd" clip-rule="evenodd" d="M0 2.96333L24 1.81674C48 0.670139 96 -1.62306 144 1.81674C192 5.25653 240 14.4293 288 15.5759C336 16.7225 384 9.84292 432 14.4293C480 19.0157 528 35.0681 576 38.5079C624 41.9476 672 32.7749 720 28.1885C768 23.6021 816 23.6021 864 24.7487C912 25.8953 960 28.1885 1008 22.4555C1056 16.7225 1104 2.96333 1152 6.40312C1200 9.84292 1248 30.4817 1296 35.0681C1344 39.6544 1392 28.1885 1416 22.4555L1440 16.7225V58H1416C1392 58 1344 58 1296 58C1248 58 1200 58 1152 58C1104 58 1056 58 1008 58C960 58 912 58 864 58C816 58 768 58 720 58C672 58 624 58 576 58C528 58 480 58 432 58C384 58 336 58 288 58C240 58 192 58 144 58C96 58 48 58 24 58H0V2.96333Z" fill="#FFB8B8"/>
</svg>
