<svg width="1440" height="52" viewBox="0 0 1440 52" fill="none" xmlns="http://www.w3.org/2000/svg">
<path fill-rule="evenodd" clip-rule="evenodd" d="M-37 46.2403L-1.98474 48.537C34.0604 50.6806 104.091 55.1209 175.151 48.537C245.182 41.9531 316.242 24.1919 386.273 20.9765C457.333 17.608 528.394 28.6322 598.424 34.1443C669.485 39.6564 739.515 39.6564 810.576 35.2161C880.606 30.929 951.667 22.0484 1022.73 18.6799C1092.76 15.4645 1163.82 17.6081 1233.85 16.5363C1304.91 15.4645 1374.94 11.0242 1410.98 8.8806L1446 6.5839L1446 -3.86643e-06L1410.98 -6.92756e-06C1374.94 -1.00787e-05 1304.91 -1.6201e-05 1233.85 -2.24133e-05C1163.82 -2.85356e-05 1092.76 -3.47479e-05 1022.73 -4.08701e-05C951.667 -4.70824e-05 880.606 -5.32947e-05 810.576 -5.9417e-05C739.515 -6.56293e-05 669.485 -7.17516e-05 598.424 -7.79638e-05C528.394 -8.40861e-05 457.333 -9.02984e-05 386.273 -9.65107e-05C316.242 -0.000102633 245.182 -0.000108845 175.151 -0.000114968C104.091 -0.00012118 34.0604 -0.000127302 -1.98473 -0.000130453L-37 -0.000133514L-37 46.2403Z" fill="#FFB8B8"/>
</svg>
