<svg width="310" height="343" viewBox="0 0 310 343" fill="none" xmlns="http://www.w3.org/2000/svg">
<path d="M162.167 89.4672C181.6 34.0772 186.543 8.85318 177.728 10.3761C173.171 11.2243 171.707 12.473 167.031 19.3785C158.128 32.9289 135.867 98.5436 138.681 103.098C142.584 109.416 158.233 100.533 162.167 89.4672Z" fill="white"/>
<path d="M58.5878 151.409C61.5262 145.314 60.8642 144.901 29.1122 135.596C12.1385 130.483 -0.49912 128.44 -8.26313 129.355C-18.9052 130.544 -19.8576 137.88 -14.0274 140.082C36.0419 159.306 53.5123 161.935 58.5878 151.409Z" fill="white"/>
<path d="M221.155 121.395C210.406 124.044 154.8 136.574 150.546 137.248C148.539 137.615 145.53 135.374 141.849 130.73C113.882 96.3119 82.439 62.514 76.3716 60.2524C71.8358 58.4979 63.8022 64.556 63.6781 69.6131C63.5539 74.6703 75.4386 118.224 85.549 149.046L92.0987 169.174C23.5312 244.86 18.535 246.961 64.1093 236.266L104.385 226.85C127.292 221.532 127.829 221.418 131.777 225.508C137.443 231.392 167.472 258.633 180.912 272.17C209.691 301.331 212.956 271.12 188.341 200.061L182.741 183.769C184.353 182.435 195.076 174.816 237.658 135.946C247.326 126.945 236.964 117.405 221.155 121.395ZM204.376 140.904C203.815 142.625 175.891 169.399 169.465 173.129C161.693 177.639 162.167 182.349 174.66 221.959C182.888 248.092 182.712 248.79 171.262 237.488C156.979 223.245 136.788 208.643 132.931 204.7C129.495 201.111 119.311 203.033 82.1639 214.222C63.5161 219.86 60.1592 220.013 65.1979 214.696C71.4598 208.071 100.821 175.079 105.006 172.65C109.041 170.308 110.665 165.378 109.14 160.281L93.2289 108.896C90.5148 99.9027 90.5163 99.9018 115.117 126.901C142.973 157.197 141.316 156.162 153.437 152.119C168.611 147.101 204.996 138.949 204.376 140.904Z" fill="white"/>
<path d="M201.306 195.072C203.302 198.303 267.011 214.603 273.905 213.595C288.474 211.525 287.653 203.62 272.301 199.161C230.721 186.778 194.954 184.791 201.306 195.072Z" fill="white"/>
<path d="M91.3447 271.982C74.4125 307.775 73.8441 314.097 88.2139 305.757C95.2492 301.673 120.995 245.584 117.195 242.396C111.285 237.438 103.254 246.493 91.3447 271.982Z" fill="white"/>
</svg>
