<svg width="1440" height="568" viewBox="0 0 1440 568" fill="none" xmlns="http://www.w3.org/2000/svg">
<rect y="57" width="1440" height="461" fill="#FFB8B8"/>
<path fill-rule="evenodd" clip-rule="evenodd" d="M0 3.32098L24 2.036C48 0.751018 96 -1.81894 144 2.036C192 5.89094 240 16.1708 288 17.4558C336 18.7407 384 11.0309 432 16.1708C480 21.3107 528 39.3004 576 43.1553C624 47.0103 672 36.7304 720 31.5905C768 26.4506 816 26.4506 864 27.7356C912 29.0206 960 31.5905 1008 25.1656C1056 18.7407 1104 3.32098 1152 7.17592C1200 11.0309 1248 34.1605 1296 39.3004C1344 44.4403 1392 31.5905 1416 25.1656L1440 18.7407V65H1416C1392 65 1344 65 1296 65C1248 65 1200 65 1152 65C1104 65 1056 65 1008 65C960 65 912 65 864 65C816 65 768 65 720 65C672 65 624 65 576 65C528 65 480 65 432 65C384 65 336 65 288 65C240 65 192 65 144 65C96 65 48 65 24 65H0V3.32098Z" fill="#FFB8B8"/>
<path fill-rule="evenodd" clip-rule="evenodd" d="M-37 562.24L-1.98474 564.537C34.0604 566.681 104.091 571.121 175.151 564.537C245.182 557.953 316.242 540.192 386.273 536.977C457.333 533.608 528.394 544.632 598.424 550.144C669.485 555.656 739.515 555.656 810.576 551.216C880.606 546.929 951.667 538.048 1022.73 534.68C1092.76 531.464 1163.82 533.608 1233.85 532.536C1304.91 531.464 1374.94 527.024 1410.98 524.881L1446 522.584L1446 516L1410.98 516C1374.94 516 1304.91 516 1233.85 516C1163.82 516 1092.76 516 1022.73 516C951.667 516 880.606 516 810.576 516C739.515 516 669.485 516 598.424 516C528.394 516 457.333 516 386.273 516C316.242 516 245.182 516 175.151 516C104.091 516 34.0604 516 -1.98473 516L-37 516L-37 562.24Z" fill="#FFB8B8"/>
</svg>
